<?xml version="1.0" encoding="UTF-8" standalone="no"?>
<!-- Created with Inkscape (http://www.inkscape.org/) -->

<svg
   xmlns:dc="http://purl.org/dc/elements/1.1/"
   xmlns:cc="http://creativecommons.org/ns#"
   xmlns:rdf="http://www.w3.org/1999/02/22-rdf-syntax-ns#"
   xmlns:svg="http://www.w3.org/2000/svg"
   xmlns="http://www.w3.org/2000/svg"
   xmlns:sodipodi="http://sodipodi.sourceforge.net/DTD/sodipodi-0.dtd"
   xmlns:inkscape="http://www.inkscape.org/namespaces/inkscape"
   width="210mm"
   height="297mm"
   viewBox="0 0 744.09448819 1052.3622047"
   id="svg2"
   version="1.1"
   inkscape:version="0.91 r13725"
   sodipodi:docname="logo.svg">
  <defs
     id="defs4" />
  <sodipodi:namedview
     id="base"
     pagecolor="#ffffff"
     bordercolor="#666666"
     borderopacity="1.0"
     inkscape:pageopacity="0.0"
     inkscape:pageshadow="2"
     inkscape:zoom="0.35"
     inkscape:cx="-45"
     inkscape:cy="520"
     inkscape:document-units="px"
     inkscape:current-layer="layer1"
     showgrid="false"
     inkscape:window-width="1366"
     inkscape:window-height="721"
     inkscape:window-x="0"
     inkscape:window-y="0"
     inkscape:window-maximized="1" />
  <metadata
     id="metadata7">
    <rdf:RDF>
      <cc:Work
         rdf:about="">
        <dc:format>image/svg+xml</dc:format>
        <dc:type
           rdf:resource="http://purl.org/dc/dcmitype/StillImage" />
        <dc:title />
      </cc:Work>
    </rdf:RDF>
  </metadata>
  <g
     inkscape:label="Layer 1"
     inkscape:groupmode="layer"
     id="layer1">
    <g
       id="g3374"
       inkscape:export-xdpi="6"
       inkscape:export-ydpi="6">
      <circle
         r="345.71429"
         cy="516.64795"
         cx="371.42856"
         id="path3336"
         style="fill:#333333;fill-opacity:0.90506329" />
      <ellipse
         ry="218.57144"
         rx="225.71431"
         style="fill:#666666;fill-opacity:0.90506329"
         id="circle3338"
         cx="405.71429"
         cy="629.505" />
      <g
         transform="matrix(5.605042,0,0,11.48271,3313.6701,-1552.4243)"
         id="flowRoot3340"
         style="font-style:normal;font-weight:normal;font-size:40px;line-height:125%;font-family:sans-serif;letter-spacing:0px;word-spacing:0px;fill:#784421;fill-opacity:1;stroke:none;stroke-width:1px;stroke-linecap:butt;stroke-linejoin:miter;stroke-opacity:1">
        <path
           style="fill:#784421"
           inkscape:connector-curvature="0"
           id="path3349"
           d="m -544.76367,190.92856 0,-7.83203 -6.44531,0 0,-3.24219 10.35156,0 0,12.51953 q -2.28516,1.6211 -5.03906,2.46094 -2.75391,0.82031 -5.87891,0.82031 -6.83594,0 -10.70313,-3.98437 -3.84765,-4.00391 -3.84765,-11.13281 0,-7.14844 3.84765,-11.13282 3.86719,-4.0039 10.70313,-4.0039 2.85156,0 5.41016,0.70312 2.57812,0.70313 4.74609,2.07031 l 0,4.19922 q -2.1875,-1.85547 -4.64844,-2.79297 -2.46094,-0.9375 -5.17578,-0.9375 -5.35156,0 -8.04687,2.98829 -2.67579,2.98828 -2.67579,8.90625 0,5.89843 2.67579,8.88671 2.69531,2.98829 8.04687,2.98829 2.08984,0 3.73047,-0.35157 1.64062,-0.37109 2.94922,-1.13281 z" />
        <path
           style="fill:#784421"
           inkscape:connector-curvature="0"
           id="path3351"
           d="m -533.63086,165.92856 3.94531,0 0,11.95313 14.33594,0 0,-11.95313 3.94531,0 0,29.16016 -3.94531,0 0,-13.88672 -14.33594,0 0,13.88672 -3.94531,0 0,-29.16016 z" />
        <path
           style="fill:#784421"
           inkscape:connector-curvature="0"
           id="path3353"
           d="m -504.95898,165.92856 4.23828,0 7.24609,10.83984 7.28516,-10.83984 4.23828,0 -9.375,14.00391 10,15.15625 -4.23828,0 -8.20313,-12.40235 -8.26172,12.40235 -4.25781,0 10.41016,-15.56641 -9.08203,-13.59375 z" />
      </g>
    </g>
  </g>
</svg>
